<?xml version="1.0" encoding="utf-8"?>
<!-- Generator: Adobe Illustrator 23.1.1, SVG Export Plug-In . SVG Version: 6.00 Build 0)  -->
<svg version="1.1" id="Layer_1" xmlns="http://www.w3.org/2000/svg" xmlns:xlink="http://www.w3.org/1999/xlink" x="0px" y="0px"
	 viewBox="0 0 65 65" style="enable-background:new 0 0 65 65;" xml:space="preserve">
<style type="text/css">
	.st0{fill:url(#SVGID_1_);}
</style>
<circle cx="32.5" cy="32.5" r="32.5"/>
<linearGradient id="SVGID_1_" gradientUnits="userSpaceOnUse" x1="1.873" y1="30.6771" x2="52.0249" y2="30.6771" gradientTransform="matrix(-1 0 0 -1 61.8978 65)">
	<stop  offset="0" style="stop-color:#E98800"/>
	<stop  offset="1" style="stop-color:#9E2E00"/>
</linearGradient>
<path class="st0" d="M41.5,40.58c-5.15-0.05-15.82-0.66-22.14-4.6C6.96,28.25,10.28,15,10.28,15s1.32,7.61,13.09,12.88
	c5.85,2.61,13.97,2.32,18.14,1.93V16.6c1.92,3.23,4.85,7.37,9.17,11.46c3.33,3.15,6.61,5.43,9.36,7.06
	c-2.92,1.78-6.52,4.34-10.16,7.95c-3.84,3.79-6.53,7.57-8.36,10.58C41.5,53.65,41.5,40.58,41.5,40.58z"/>
</svg>
